<?xml version="1.0" encoding="utf-8"?>
<!-- Generator: Adobe Illustrator 21.0.0, SVG Export Plug-In . SVG Version: 6.00 Build 0)  -->
<svg width='100px' height='200px' version="1.1" id="图层_1" xmlns="http://www.w3.org/2000/svg" xmlns:xlink="http://www.w3.org/1999/xlink" x="0px" y="0px"
	 viewBox="0 0 100 200" style="enable-background:new 0 0 100 200;" xml:space="preserve">
<style type="text/css">
	.st0{fill:#CFCFCF;}
	.st1{fill:#C1C1C1;}
	.st2{fill:#DFDFDF;}
	.st3{fill:#D7D7D7;}
	.st4{fill:#BDBDBD;}
	.st5{fill:#C5C5C5;}
	.st6{fill:#767676;}
	.st7{fill:#E3E3E3;}
	.st8{fill:#A7A7A7;}
	.st9{fill:#BEBEBE;}
	.st10{fill:#242424;}
	.st11{fill:#4D4D4D;}
	.st12{fill:#ADADAD;}
	.st13{fill:#B6B6B6;}
	.st14{fill:#E6E6E6;}
	.st15{fill:#A1A1A1;}
	.st16{fill:#9E9E9E;}
	.st17{fill:#545454;}
	.st18{fill:#BABABA;}
	.st19{fill:#7F7F7F;}
	.st20{fill:#2E2E2E;}
	.st21{fill:#B9B9B9;}
	.st22{fill:#B3B3B3;}
	.st23{fill:#8B8B8B;}
	.st24{fill:#6D6D6D;}
	.st25{fill:#565656;}
	.st26{fill:#0E0E0E;}
	.st27{fill:#D9D9D9;}
	.st28{fill:#9A9A9A;}
	.st29{fill:#F7F7F7;}
	.st30{fill:#D5D5D5;}
	.st31{fill:#D6D6D6;}
	.st32{fill:#AAAAAA;}
	.st33{fill:#C9C9C9;}
	.st34{fill:#A9A9A9;}
	.st35{fill:#3F3F3F;}
	.st36{fill:#AFAFAF;}
	.st37{fill:#DCDCDC;}
	.st38{fill:#1F1F1F;}
	.st39{fill:#393939;}
	.st40{fill:#4B4B4B;}
	.st41{fill:#B2B2B2;}
	.st42{fill:#9F9F9F;}
	.st43{fill:#CBCBCB;}
	.st44{fill:#F5F5F5;}
	.st45{fill:#DBDBDB;}
	.st46{fill:#EAEAEA;}
	.st47{fill:#D4D4D4;}
	.st48{fill:#F3F3F3;}
	.st49{fill:#484848;}
	.st50{fill:#343434;}
	.st51{fill:#3D3D3D;}
	.st52{fill:#B5B5B5;}
	.st53{fill:#6A6A6A;}
	.st54{fill:#8F8F8F;}
	.st55{fill:#8E8E8E;}
	.st56{fill:#4E4E4E;}
	.st57{fill:#6B6B6B;}
	.st58{fill:#636363;}
	.st59{fill:#F1F1F1;}
	.st60{fill:#E2E2E2;}
	.st61{fill:#E7E7E7;}
	.st62{fill:#3A3A3A;}
	.st63{fill:#E4E4E4;}
	.st64{fill:#595959;}
	.st65{fill:#6E6E6E;}
	.st66{fill:#1D1D1D;}
	.st67{fill:#979797;}
	.st68{fill:#C2C2C2;}
	.st69{fill:#4C4C4C;}
	.st70{fill:#B8B8B8;}
	.st71{fill:#5D5D5D;}
	.st72{fill:#222222;}
	.st73{fill:#E8E8E8;}
	.st74{fill:#F2F2F2;}
</style>
<path class="st0" d="M29,1.1c0-0.3,0.1-0.7,0.1-1c14,0,27.9,0,41.9,0c7.3,3.5,13.2,8.7,18.9,14.2c-3.5,0.7,1.2,4.2-1.7,5
	c-1.3-0.2-2.1-1-2.8-1.9c-1.8-2.5-3.6-5.1-6.7-6.2c-0.9-0.3-1.7-0.7-2.1-1.5C75.8,8,74,7,72.8,5.7c-2.5-2.6-5.5-3.2-9-3.1
	c-9.4,0.2-18.8,0.1-28.3,0C33.3,2.5,30.9,3,29,1.1z"/>
<path class="st1" d="M37,199.9c-4.4-2.4-10.1-1.4-14.1-5.1c2.7-1.8,5,0.2,7.5,0.6c1.8,0.3,3.5,1,5.3,1.1c11,2,21.9,0.9,32.9-0.7
	c0.9,0.1,1.8,0.4,2.4,1.2c-2.6,2.2-6.3,1.1-9,3C53.7,199.9,45.3,199.9,37,199.9z"/>
<path class="st2" d="M92.9,62.2c1.6,2.5,4.9,2.1,7,3.9c0,1,0,2,0,3c-3,0.9-5.9,0.1-8.9,0c-1.7,0.6-1.8-0.8-2.4-1.7
	c-0.1-0.4-0.1-0.9-0.1-1.4c0.6-1.8,1.5-3.3,3.2-4.2C92.2,61.7,92.6,61.8,92.9,62.2z"/>
<path class="st3" d="M0.1,66c2.1-1.4,4.9-1.5,6.1-4.2c0.4-0.2,0.8-0.3,1.3-0.2c1.8,0.7,3.1,1.7,3.5,3.7c0.1,0.4,0.1,0.9,0,1.3
	c-0.1,0.4-0.2,0.9-0.4,1.3c-0.4,0.6-0.9,1-1.6,1C6,68.8,3,70.8,0.1,69C0.1,68,0.1,67,0.1,66z"/>
<path class="st4" d="M88.9,66.9c0.7,0.7,1.4,1.5,2,2.2c0,7.6,0,15.2-0.1,22.8c0,1.8,0.3,3.7-0.8,5.3c-0.9-0.8-0.4-1.8-0.6-2.6
	c0,3,0,6,0,9.1c0,1.3,0.2,2.8-1.8,2.8c-2.7-1.4-1.8-4-2.1-6.2c0.1-2.7-0.1-5.3,0.3-8c1.3-5,0.4-10.2,0.7-15.3c0.1-3-0.2-6,1.2-8.7
	C88,67.6,88.4,67.2,88.9,66.9z"/>
<path class="st5" d="M89.8,127.8c0,5.6,0.2,11.2-0.1,16.8c-0.1,1.5,0.3,2.4,1.2,3.4c-1.4,1.6-0.2,4-1.7,5.7c-0.8,0.7-1.5,0.5-2-0.4
	c-1.3-4.1-0.4-8.4-0.6-12.6c-0.1-1.9,0-3.9-0.7-5.8c-0.8-7.4,0.2-14.9-0.8-22.3c0.5-2,0.7-4.3,3.4-4.9c2,2.8,0.6,5.9,0.9,8.9
	C89.7,120.4,89,124.2,89.8,127.8z"/>
<path class="st6" d="M88.1,154.2c0.3-0.4,0.6-0.8,0.8-1.2c1.5-1,0.4-3.4,2.2-4.3c1.1,9.5,1.1,19,0,28.4c-1.9-2.9-1.2,1.2-2.2,0.8
	c-0.1,0.3-0.1,0.5-0.3,0.7c-0.7,0.2-1.2-0.1-1.5-0.7C86.3,170,85.1,162,88.1,154.2z"/>
<path class="st7" d="M71,196.9c-0.7,0-1.4-0.1-2.2-0.1c-0.6-0.6-2-0.1-2.1-1.4c1.5-2.4,4.3-2,6.5-3c2.8-1.4,5.7-2.5,7.9-4.9
	c1.4-1.3,2.4-2.9,3.1-4.6c0.5-1.3,0.3-2.9,1.2-4.1c1.2-1.6,1.8-0.6,2.2,0.6c0.7,3.1,0,6-1.7,8.7c-1.1,1.5-2.2,3-3.9,3.8
	C78.6,194.3,74.6,195.3,71,196.9C70.9,196.9,71,196.9,71,196.9z"/>
<path class="st8" d="M89.8,127.8c-1.9-4.4-0.3-9.1-0.9-13.6c-0.2-2,0.9-4.3-0.9-6.1c-0.6-0.7-0.7-1.4-0.1-2.2c2.4-4.4,0-9.3,1.4-14
	c1.2,1.6,0.2,3.5,0.7,5.2C89.9,107.4,89.8,117.6,89.8,127.8z"/>
<path class="st1" d="M70.9,196.9c3.4-2.4,7.2-3.7,11.1-5C79,195.2,75.2,196.4,70.9,196.9z"/>
<path class="st9" d="M85.9,188.1c0.7-3,1.2-6,1-9.1c0.4-0.6,0.9-0.6,1.4-0.1c0,0,0.3-0.1,0.3-0.1C89,182.2,88.9,185.6,85.9,188.1z"
	/>
<path class="st10" d="M88.9,178c-0.2-1.7-0.3-3.5,0.3-5.3c2.5,0.7,1.2,3,1.9,4.4C90.6,178.1,89.7,177.9,88.9,178z"/>
<path class="st11" d="M91.1,148.7c-0.6,1.5,0.5,3.9-2.2,4.3c0.6-1.7-2-4.6,2-5C91,148.2,91.1,148.4,91.1,148.7z"/>
<path class="st12" d="M10,147.8c0.1-5.6,0.2-11.3,0.3-16.9c0.8-3.7,0.2-7.5,0.4-11.3c0.7-5.2,1.4-10.4,0.2-15.7
	c-0.4-12,0-24-0.2-36.1c0.2-1.1,0.9-1.3,1.9-1.3c3,2,5.5,4.3,4.9,8.4c-0.3,0.4-0.8,0.8-0.8,1.2c0.5,8.9-1.4,17.7-1,26.6
	c0.3,4.7,1.7,8.9,5.4,12.1c0.9,9.6,0.3,19.2,0.3,28.8c0,1.3-0.3,2.6-1.6,3.5c-2.6-1.1-2.1-3.5-2.1-5.5c-0.1-6.9,0-13.8,0-18.1
	c0.4,5.8-0.9,14.3,0.5,22.7c0.5,1.4,2.4,1.3,2.8,2.8c0.5,2.1,0.8,4.2-0.8,6c-0.3,0.1-0.6,0.1-0.9,0c-0.7-0.2-0.6-1.3-1.2-1.3
	c-0.6,0.1,0.1-0.2-0.1,0.4c-0.6,1.7,1.5,0.2,1.5,1.2c0.9,1.5,0.3,2.9-0.5,4.2c-1.1,1.9-2.4,4.1-4.8,3.7c-2.9-0.4-1.8-3.4-2.4-5.3
	c-0.9-3.1,2-6.3-0.2-9.3c-0.2,0-0.4-0.1-0.6-0.1C10.5,148.4,10.2,148.1,10,147.8z"/>
<path class="st13" d="M11.1,67c1.7,12.7,0.8,25.4,1,38.1c-0.5,0.2-0.9,0.2-1.2-0.2c-0.2-0.8-0.3-1.6-0.1-2.4
	c-0.7,2.2,1.8,4.7-0.7,6.7c-1.5-7.4-0.7-14.9-0.7-22.3c1.1-6.3-0.4-12.7,0.9-19c0-0.3,0-0.6,0-0.9C10.4,66.7,10.7,66.7,11.1,67z"/>
<path class="st12" d="M9.1,177.9C7.8,177,8,175.6,8,174.3c0.1-8.1,0.2-16.3,0.3-24.4c3.3,3,1.2-2.2,2.7-1.8l0.4-0.2
	c0.9,0.2,1.6,0.8,1.5,1.7c-1.3,9.3,1.8,18.5,0.6,27.9c-0.3,1.5-0.1,3.3-2.3,3.5C11.3,179.3,9.6,179,9.1,177.9c1.7-1.8,0.7-3.9,1-5.9
	c0.1-1.4-0.3-2.9,0.1-3.5c-0.7,0.8,0.1,2.6-0.1,4.2C10,174.5,10.5,176.4,9.1,177.9z"/>
<path class="st14" d="M35.1,197.8c-4.1-1-8.1-2-12.2-3c-3.3-1.8-6.8-3.3-8.7-6.8c-0.7-0.5-0.8-1.2-0.5-2c0.3-0.4,0.8-0.6,1.3-0.6
	c2,0.1,2.8,1.9,4.1,3c4.3,3.6,9.5,5.1,14.9,6.2c1.6,0.3,3.4,0,4.2,1.9C37.7,198.1,36,196.9,35.1,197.8z"/>
<path class="st15" d="M9.9,109.2c0-2.7,0-5.4,0-8.7c1.7,1.8,0.8,3.3,1.2,4.6c1.5,4.6,0.4,9.2,0,13.7c-0.6,4,0.9,8.1-0.9,12
	C10.1,123.7,10,116.4,9.9,109.2z"/>
<path class="st16" d="M10.1,68c-0.5,6.3,1,12.7-0.9,19C9.1,81,9,75,8.9,69.1C9.3,68.7,9.7,68.3,10.1,68z"/>
<path class="st17" d="M11,148.1c0,2.3,0,4.6,0,7.4c-2.9-1.3-1.2-4.2-2.7-5.6c0.2-1,0.6-1.8,1.7-2.1C10.3,147.9,10.6,148,11,148.1z"
	/>
<path class="st18" d="M14,185.9c0.1,0.7,0.1,1.4,0.2,2.1c-2.9-1.5-2.7-4.5-3.2-7.1c1.2-0.7,0.9-2,1.1-3.1
	C15.7,179.9,14.2,183.1,14,185.9z"/>
<path class="st4" d="M91.9,62.3c-1,1.3-2,2.5-3,3.8c-5-4-3.5-9.5-2.9-14.6c0.5-4.6,0.9-9.1-0.2-13.6c-0.4-6.4-0.1-12.7,2.2-18.8
	c1.4-1.3-1.6-4.3,1.9-4.7c2.8,1.9,2,4.9,2,7.6c0.1,3.4,0,6.8-0.1,10.2c1.1,7.8-0.4,15.7,0.4,23.5C92.2,57.9,92.4,60.1,91.9,62.3z"/>
<path class="st19" d="M90.9,56.1c-1-7.3,0.2-14.6,0-21.9c0-0.8,0.1-1.6,1-2.1c1,1.2,2.2,2.2,2.2,4.1c-0.2,7.9-0.2,15.9-0.3,23.8
	C91.1,59.9,92.6,56.9,90.9,56.1z"/>
<path class="st20" d="M90.9,56.1c4-0.8,1,3.3,2.8,4c0.1,0.8-0.1,1.5-0.8,2.1c-0.3,0-0.7,0.1-1,0.1C89.5,60.6,91.4,58.1,90.9,56.1z"
	/>
<path class="st21" d="M10.1,65.9c0.2-2.2-2-2.5-3.1-3.7c0.3-0.9,0.6-1.9,0.6-2.9c0.1-2.7-0.1-5.4,0-8.1c-0.8-9.7,1.1-19.4,0.9-29.1
	c0-1.6,0.3-3.3-0.3-4.9c2.8-6.7,8.4-10.6,14.4-14c0.9-0.5,1.9-0.4,2.4,0.7c-0.1,0.2-0.1,0.4-0.2,0.6c-1.3,1.6-3.1,2.5-4.8,3.5
	c-2.9,1.8-5.7,3.6-6.4,7.3c-0.6,1.8-1,3.6-0.4,5.4c-0.6,6.7,2,13.3,0.9,20.1c-1,4.2-0.8,8.4-0.1,12.7c0.7,4,1.3,8.2-1.6,11.8
	C11.7,66.3,11.2,66.9,10.1,65.9z"/>
<path class="st2" d="M29,1.1C40.7,1.1,52.3,1.3,64,1c4.7-0.1,8.3,1.2,10.9,5.1c-3.5,1.4-6.7-0.9-10.2-0.8
	C53.1,5.8,41.5,5.2,29.9,5.7c-1.6,0.1-3,0.1-3.8-1.6C26.1,2.2,27.8,1.9,29,1.1z"/>
<path class="st22" d="M26.1,4.1c10.8,0,21.6,0,32.4,0c5.6,0,11.2-0.6,16.4,2c0.1,1.4,3.2,0.8,2,3.1c-2.1,0.6-3.6-0.8-5.3-1.4
	c-0.9-0.4-1.8-0.7-2.8-1c-3.7-0.6-7.5-0.2-11.2-0.3c-7.6-0.1-15.1,0-22.7,0.1c-2,0-3.9,0.1-5.8,0.9c-1.1,0.3-2.2,0.3-3.2-0.4
	c-0.8-0.9-1.2-1.8-0.8-3c0,0,0-0.1,0-0.1C25.4,4.1,25.7,4.2,26.1,4.1z"/>
<path class="st23" d="M8.3,17.3C10,21,8.9,25,9,28.9c0.2,7.7,0,15.5,0,23.2c-3.5,1.5-1.8-2.2-3-3c-0.4-3.3-0.5-6.6,0-10
	c1.8-2.1,0.3-5,2-7.1C8.1,27.1,8.2,22.2,8.3,17.3z"/>
<path class="st24" d="M6.1,49c1.3,0.7,0.8,3.2,3,3c0,3-0.1,6-0.1,9.1c-2.2,0.2-1.4-2.4-2.8-3C5.5,55.1,5.9,52.1,6.1,49z"/>
<path class="st25" d="M8.1,32c-0.2,2.5,1.1,5.4-2,7.1C6.4,36.6,4.6,33.5,8.1,32z"/>
<path class="st26" d="M6.2,58.1c3.7-1.5,1.2,2.7,2.8,3c-0.2,1.2-1.1,1.1-1.9,1.1c-0.2-0.2-0.5-0.4-0.9-0.4
	C6.2,60.6,6.2,59.4,6.2,58.1z"/>
<path class="st27" d="M72.1,7.1c1.9,0.1,3.3,1.4,4.8,2.2c0.5,0.3,1.1,0.6,1.6,0.9c3.8,2.2,6.5,5.3,8.2,9.3
	c0.3,9.6-0.9,19.2-0.6,28.8c0.2,4.4-1.8,5.7-6.1,4.4c-3.4-1-7.2-1.1-10.2-3.6c-2.4-4.9-2.7-10-1.6-15.3c-0.8,1.8,0,3.9-0.8,5.7
	c-0.4,0.9-1.1,1.8-2.2,1.5c-1-0.2-1.1-1.1-1.3-1.9c-0.2-0.6-0.2-1.3-0.1-2c1.1-8.7,1.9-17.5,3.8-26.1C68.2,8.9,68.5,5.9,72.1,7.1z"
	/>
<path class="st28" d="M69.8,48.2c3.9,1.2,7.9,2.4,11.8,3.6c2.5,0.8,3.3-0.5,3.3-2.8c-0.3-10.3,1.7-20.5,1-30.7
	c-0.4-0.5-0.4-0.9,0.1-1.3c0.7,0.7,1.3,1.4,2,2.1c-0.3,6.4-0.7,12.7-1,19.1c1,8.1-0.5,16-2.7,23.7c-3.2,6.2-5.1,13-7.7,19.4
	c-2.4,2-4.9,1.2-7.3,0.3c-0.4-0.3-0.7-0.7-0.6-1.3c0.2-0.4,0.5-0.8,0.9-1c4.2-1.4,4-5.6,5.4-8.8c0.3-0.9,0.7-1.9,1.1-2.8
	c1-2.1,2-4.2,2.7-6.4c1.7-5.1,1.1-6.4-4.2-7.8c-13.2-3.5-26.5-3.8-39.9-2.3c-4.4,0.5-8.7,2.3-13.2,1.4c-0.5-0.3-0.7-0.8-0.7-1.4
	c2.2-3.6,6.4-2.7,9.5-4.1c3.3-0.9,6.5-1.5,9.9-1.4c5.1-1.1,10.3-1.4,15.5-0.6c3,1.1,6.2,0.3,9.2,1.1C66.7,46.5,68.5,46.7,69.8,48.2z
	"/>
<path class="st15" d="M86,16.9c0,0.4-0.1,0.9-0.1,1.3c-2.4-2.7-4.9-5.4-7.3-8.2C82.3,10.9,84.4,13.6,86,16.9z"/>
<path class="st29" d="M35.1,197.8c0.7-1.1,1.9-0.8,2.9-0.9c1.3-1.3,3-1.3,4.6-1.3c7.2-0.3,14.4,0.5,21.6-0.6c1-0.2,1.9,0.2,2.7,1
	c0.7,0.1,1.5,0.1,1.9,0.9C57.7,199.3,46.4,199.6,35.1,197.8z"/>
<path class="st30" d="M83,62.1c2.3-7.8,3.9-15.8,4-24c2,3.3,1.3,7.1,0.8,10.5c-0.9,6-1.3,11.8,1.2,17.5c0,0.3,0,0.5,0,0.8
	c0,0,0,0.2,0,0.2c-0.9,0.9-1.8,1.7-3.1,1.8C80.6,68.4,83.6,64.5,83,62.1z"/>
<path class="st31" d="M10.1,65.9c5-3.4,2.8-8.3,2.4-12.8c-0.3-4.1-1.4-8.1,0.5-12.1c2.3,2.2,0.9,5.4,1.9,8c0.7,2,0.6,4.2,1.9,6.1
	c1.4,2.6,1.9,5.6,3.2,8.3c0.5,1.6,1.2,3.1,1.8,4.7c0.2,0.7,0.3,1.5,0.2,2.2c-0.1,0.8-0.4,1.4-1.1,1.9c-3.9-2.4-4.1-6.7-5.5-11
	c0.4,2.7,0.7,5-2.3,5.7c-0.7,0-1.4,0-2.1,0c-0.3,0-0.6,0-1,0.1C10.1,66.7,10.1,66.3,10.1,65.9z"/>
<path class="st17" d="M86.9,92c0,2.6-0.1,5.2-0.1,7.8c-1.7,3.6,1.5,7.8-1.3,11.4c-2.5-1.2-2-3.6-2-5.7c-0.1-8.1,0-16.3,0-24.4
	c0-2-0.2-4-0.6-5.9c0-1.2,0.2-2.3,0.9-3.3c0.6-1,1.4-2.1,2.7-1.7c1.2,0.3,0.9,1.6,0.9,2.5C87.2,79.1,88,85.6,86.9,92z"/>
<path class="st32" d="M86.9,92c0-7,0-14.1,0-21.9c-2.1,1.6-2.9,3.1-3,4.9c-0.6,0.7-0.2,2-1.4,2.2c-0.5-0.1-0.9-0.4-1.2-0.8
	c-1.1-4.3,1.2-6.7,4.7-8.4c1-0.3,1.9-0.7,2.9-1c-1.6,6.5-0.8,13.2-1,19.8C87.8,88.6,88.5,90.5,86.9,92z"/>
<path class="st32" d="M85.9,111c0.7-3.7-0.6-7.5,0.9-11.1c0.6,2-0.7,4.3,1.1,6.1c0,0.7,0,1.5,0.1,2.2c-0.6,1.3-1.2,2.7-1.9,4
	c-0.2-0.1-0.3-0.2-0.5-0.3C85.5,111.5,85.6,111.2,85.9,111z"/>
<path class="st32" d="M86.1,112.2c1.7,7.6,0.4,15.2,0.8,22.8c0.1,2.1,2.2,4.6-1.2,5.9c-2.4-5.1-0.6-10.6-1.2-15.8
	c-0.6-2.6,1.4-5.7-1.2-8c-1.4,0.3-1.8,1.3-1.9,2.6c-0.2,7.8-0.2,15.6,0,23.3c0,0.9,0.5,1.5,1.2,2c0.4,0.2,0.9,0.4,1.3,0.5
	c0.5,0.1,0.9,0.2,1.4,0.4c0.5,0.2,0.9,0.4,1.3,0.7c0.7,4.5,0.2,9,0.2,13.5c0,2-0.4,3.9-3.2,2.3c-0.7-0.7-1.2-1.5-1.1-2.6
	c1.1-1.8,1.1-3.8,0.9-5.9c-1.4,1.4,1.1,5.4-3.2,4.6c-2.3-2.7-2.8-6-2.8-9.3c0-18.6,0-37.2,0-55.9c0-2-0.3-4.1,1.6-5.5
	c2.9,0.8,2.1,3.3,2.2,5.3c0.2,4.9,0.1,9.9,0.1,14.8c0,2.1,0.5,3.6,2.9,3.5c0.6,0,1.1,0.2,1.6,0.4L86.1,112.2z"/>
<path class="st31" d="M85.9,141c1.7-1.8,0.6-4,1-6c2,4.3,0.6,8.9,0.9,13.4c0.2,1.9,0.1,3.9,0.2,5.8c0.4,8.2-0.8,16.5,0.2,24.7
	c-0.5,0-0.9,0-1.4,0.1c-2.4,1,0.2,3.9-1.9,5c-2.8-3-0.6-7.1-2.2-10.3c-3.2-6-3-8.7,1.2-11.8c2.2,1,2-0.5,2-1.9c0-4.4,0-8.7,0-13.1
	C84.4,145,84.2,143,85.9,141z"/>
<path class="st33" d="M66.9,195.9c-9.6,1.7-19.2,0.9-28.9,1c-6.9-2-14.3-2.6-20-7.7c-1.8-4.6-3-9.1,0.6-13.4
	c2.7,1.7,1.7,4.4,1.8,6.7c0.1,3.2,0.8,5.9,4,7.3c4.5,2.1,9.3,3.3,14.3,3.8c6.9,0.9,13.7,1.6,20.6,0.1c4.1-0.3,8.1-1.1,12.1-2.4
	c4-0.4,6.7-4.1,10.7-4.4c0.4,0.5,0.4,0.9-0.1,1.3C78.1,193,72.1,193.5,66.9,195.9z"/>
<path class="st34" d="M81.9,188.1c0-0.4-0.1-0.8-0.1-1.2c-0.6-4.1-0.9-8.3-3.2-11.9c1.2-2.1,3-2.6,5.2-2.1c2.3,3.5,0.5,7.4,1.1,11.1
	C84.1,185.4,83.6,187.2,81.9,188.1z"/>
<path class="st31" d="M14,185.9c-2.2-2.3,0.2-5.7-1.8-8.1c-0.1-8.2-0.1-16.5-0.2-24.7c0-1.8,0.4-3.7-0.7-5.3
	c0.3-0.8,0.8-1.8,1.5-0.8c0.6,0.9,2.3,1.7,1.2,3.3c-2,3-0.6,6.4-0.9,9.6c-0.1,0.9-0.3,2.2,0.9,2.5c1.1,0.3,1.7-0.7,2.4-1.4
	c1.6-1.7,2.9-3.6,2.7-6.1l0,0c1.8-1.6,0.8-3.8,1.2-5.7c0.3-0.4,0.6-0.5,1.1-0.2c0.8,0.4,0.2,1.9,1.4,1.8
	c-0.2-17.8-0.4-35.6,0.1-53.3c0.1-5.6-0.4-11.6,2.3-17c0.9-1,2-1,3.2-0.9c1.9,0.2,3.9,0,5.8,0.7c1.6,0.9,3.2,1.4,5,1.5
	c1.4,0.1,3,0.2,3.1,2.3c-1.8,1.7-4,1.2-6.1,1.3c-2.5,0.2-4.9,1.1-5.2,3.7c-0.6,4.5-1.5,9.1,0.7,13.5c0.8,0.7,1.5,1.5,1.9,2.5
	c0.1,0.5,0.1,1.1,0,1.6c-1.2,12.6,2,25,1,37.5c-0.4,5-0.1,10.3-3.5,14.6c-2.3,1.7-4.4,0.5-6.6-0.3c-3.6-0.3-2.4,2.9-3.4,4.6
	c-1.4,3.8-0.3,6.8,3,9.1c5.3,3.8,11.9,4.1,17.8,6.2c0.4,0.4,0.6,0.8,0.6,1.4c-0.3,0.8-0.8,1.3-1.6,1.6c-7.2,0.2-13.4-3.1-20-5.1
	c-4.7-2-5.5-1.4-5.3,3.4c0.1,2.1,1.4,4.2-0.2,6.2C14.8,185.9,14.4,185.9,14,185.9z"/>
<path class="st24" d="M19.9,113.7c-3.4-0.1-4.5-1.7-5.1-5.2c-1.6-9.2,0.6-18.2,0.2-27.3c-0.1-2.5,0.3-4.9-0.9-7.3
	c1.6-0.4,1.9,0.9,2.8,1.3c4.5,4.3,3.6,10.3,4.4,15.6c0.7,4.3,0.1,8.8,0.2,13.2C21,107.3,22.6,110.8,19.9,113.7z"/>
<path class="st3" d="M20.1,104c0.1-9.7-0.1-19.4-3.3-28.8c0.7-3.6-3.6-5-3.7-8.2c1.5-1.7,1.5-3.9,2.3-6.4c2,4.1,3.7,7.8,5.5,11.5
	c3.3,2.3,3.9,6,3.2,9.3c-1,5.1-0.5,10.2-1.3,15.3c-0.8,2.3-0.2,4.9-1.4,7.1C21.1,104.2,20.7,104.3,20.1,104z"/>
<path class="st35" d="M18.1,147c-1.1-0.2-1.9-0.6-1.9-1.9c0-9,0-17.9,0-26.9c0-1,0.2-2.1,1.5-2.2c1.3-0.1,1.6,1,1.6,2.1
	c-0.3,9.6,0.8,19.2-0.6,28.7C18.5,146.9,18.3,146.9,18.1,147z"/>
<path class="st36" d="M18.1,147c0.2-0.2,0.4-0.2,0.6-0.1c1.9-0.7,1.4-2.4,1.4-3.8c0-9.8-0.1-19.5-0.1-29.3c0.1-3.3,0.1-6.5,0.2-9.8
	c0.3,0,0.6,0.1,0.9,0.1c1.5,1.4,1.4,3.3,1.4,5.1c0.1,11.6,0.1,23.1,0,34.7c0,1.8,0.1,3.7-1.4,5.1c-0.3,0-0.5,0.2-0.7,0.3
	C19.5,148.5,18.8,147.7,18.1,147z"/>
<path class="st37" d="M11.2,118.8c0-4.6,0-9.2,0-13.7c0.3-0.1,0.6-0.1,0.9,0C13.5,109.8,12.7,114.3,11.2,118.8z"/>
<path class="st38" d="M19.1,155c-0.8,0.1-1.5,2.4-1.9,0.8c-0.5-2.1-1.3-4.9,1.5-6.7C20,151.1,18.7,153.1,19.1,155L19.1,155z"/>
<path class="st39" d="M11.1,171.9c-0.4,2.1,2.5,5.3-2,6c0,0,0,0,0,0c0-2,0-4,0-6C9.8,171.3,10.4,171.3,11.1,171.9z"/>
<path class="st40" d="M11.1,171.9c-0.7,0-1.3,0-2,0c-0.1-1.7-0.4-3.5,1.3-5.5C11.3,168.4,11.2,170.2,11.1,171.9z"/>
<path class="st41" d="M15.2,185.9c-0.4-2.9-1.1-5.8-1.1-8.8c0-3.9,1.1-4.9,4.6-2.9c0.7,0.4,1.5,0.5,2.3,0.8c0.1,1.7-0.7,1.6-1.8,1
	c-1.9,4.3-1.2,8.8-1,13.2C17.1,188.1,16.1,187,15.2,185.9z"/>
<path class="st42" d="M16.1,56c-3.3-4.5-2.9-9.8-3.1-14.9C12.7,33.7,12.3,26.4,12,19c0.3-1.6,0.9-2.8,2.6-1.1
	c1.3,10.6,0.8,21.3,2.3,31.9c1.1,1.4,3.1,0,4.2,1.4c0,0.3,0,0.6,0,0.9C20.1,54.2,17.7,54.7,16.1,56z"/>
<path class="st43" d="M14.1,17.1c-0.7,0.6-1.4,1.3-2.1,1.9c-1.9-1.9,1.1-2.6,1.1-4c1-3.8,4.4-5.5,7-7.9c1.7-1,3.3-2,5-3
	c0.3,0.7,0.6,1.3,1,2c-0.3,2.1-1.8,3-3.6,3.7c-3.3,1.5-5.3,4.6-7.8,7C14.5,16.9,14.3,17,14.1,17.1z"/>
<path class="st44" d="M20.1,7.1c-2.3,2.6-4.7,5.3-7,7.9C12.9,10.2,16.8,8.9,20.1,7.1z"/>
<path class="st45" d="M22.1,9.1c1.3-1,2.6-2,4-2.9c0.6,0.3,1.2,0.6,1.8,0.9c3.7-1.5,5.1,1,5.2,3.7c0.4,9.1,2,18,2.8,27
	c0.4,4.4-3.1,7.3-5.8,10.3c-3,1-6,2-9.1,3c-1.6,0.3-3.3,0.6-4.9,0.9c-0.1-11.5-0.8-23.1-0.6-34.6C15.7,13,19.6,11.6,22.1,9.1z"/>
<path class="st46" d="M69.8,48.2c-4.7-0.7-9.4-1.3-14-2c-2.2-10.2-0.9-20.5-1.1-30.8c-0.1-3.2,0.6-6.3,2.5-8.9
	c0.4-0.4,0.9-0.7,1.5-0.8c3.8,0.2,7.6-0.6,11.3,0.5c0.7,0.3,1.4,0.6,2.1,1c-3.7,0.7-3,3.9-3.3,6.3c-1.4,8.9-2.7,17.7-3.4,26.7
	c2.4-2.9,1.4-6.9,3.6-10.7c0,4.8,0.3,8.9-0.1,12.9C68.6,44.5,71.6,45.9,69.8,48.2z"/>
<path class="st46" d="M30.1,48.1c0.3-0.8,0.5-1.7,1-2.4c3.1-4.3,4-8.9,2.8-14.1c-1.4-6.3-2.2-12.7-2-19.2c0.1-2.8-0.3-5.5-4.2-5.4
	c1.7-1.5,3.7-1.9,5.9-1.9c8.1,0,16.1,0,24.2,0c0.3,0.2,0.5,0.4,0.4,0.6C58.2,6,58.1,6.1,58,6.1l0,0c-4.8,2.9-10,1-15,1.3
	c-0.5-0.5-0.1,0.7,0,0c0.1-0.3,0.2-0.2,0.5,0.1c2.1,1.7,2,4.1,2,6.4c0.1,8.5-0.1,16.9,0.1,25.4c0.1,4.1-1.4,6.7-5.5,7.4
	C36.8,47.2,33.5,47.6,30.1,48.1z"/>
<path class="st27" d="M58,6.1c0-0.3,0-0.6,0-0.9c4,0.3,8.1-1.1,12,0.9C66,6.1,62,6.1,58,6.1z"/>
<path class="st47" d="M69.1,81c2.3-0.4,4.5,1.1,6.8,0c1.3,0.6,1.7,1.7,1.5,3.1c-0.1,22.7-0.2,45.5,0.1,68.2c0.2,1.1,0.8,2.1,0.8,3.3
	c-0.8,1.9-2.6,2.7-4.2,3.6c-1.4,0.5-2.7,0.8-3.9-0.4c-3.5-5.1-3.3-11-3.6-16.7c-0.6-11.6,0.8-23.2,0.3-34.8c-0.3-0.5-0.4-1-0.5-1.5
	c-0.1-0.5,0-1.1,0.1-1.6c0.3-0.7,0.9-1.3,1.5-1.8c2-3,2.4-11.5,0.7-14c-1.5-2.2-3.7-3-6.4-3c-2.5,0-5.3,0.9-7.5-1.5
	c0.9-2.5,3.1-2.1,5-2.1c2.2,0,4.2-0.3,6.1-1.4C67.1,80,68.1,80.3,69.1,81z"/>
<path class="st48" d="M40.1,46.7c4.3-1.8,4-5.4,4-9.2c-0.2-8.5,1.1-17.2-0.4-25.4c-1.4-7.3,2.1-6.2,6.3-6c2.7,0.1,5.3,0,8,0
	c-3.9,11.8-1.3,24-1.9,36c-0.1,1.6,0.2,1.6,3.2,3.7c-1.4,0.2-2.5,0.3-3.6,0.4C50.5,46.4,45.3,46.5,40.1,46.7z"/>
<path class="st49" d="M21.1,70c-0.1-0.6-0.2-1.2-0.2-1.8c0.2-2.2,1.9-3.4,3.5-4.5c13.5-9.1,32.1-9.2,45.6-0.1
	c2.8,1.9,5.5,3.8,5.9,7.5c-0.4,2.6-1.5,4.9-2.5,7.2c-0.8,1.8-1.8,2-3.3,1.6c-2.3-7.8-8.7-10.6-15.6-12.2
	c-10.3-2.4-19.7-0.1-27.7,7.1c-0.7,0.7-1.4,1.4-2.5,1.5C21.8,74.9,22.5,71.9,21.1,70z"/>
<path class="st50" d="M16.1,56c0-3.4,3.1-2.9,5-4c11.5-2.3,23.1-3.8,34.9-3c7.5,0.5,14.7,2,21.9,3.9c3.5,1,4.5,2.6,3.3,6.1
	c-1.2,3.4-2.4,6.9-4.3,10c-0.2,0-0.5,0.1-0.5,0.1c-5.7-12.2-17.1-13.7-28.4-14.5c-9.1-0.7-17.6,2.4-25.2,7.6c-1.2,0.8-2,2.3-3.8,1.9
	C17.4,61.6,17.1,58.7,16.1,56z"/>
<path class="st51" d="M19.1,64c9.3-9.1,20.7-11.8,33.2-10.6c6.8,0.7,13.2,2.7,18.9,6.7c3.2,2.3,6.5,4.2,5.7,8.9
	c-0.3,0.7-0.6,1.3-1,2c-12.8-16.1-39.3-17.5-55-2.9C19.9,66.9,19.3,65.6,19.1,64z"/>
<path class="st17" d="M24,76.1c11.3-13.3,32.4-14.2,45-1.9c1.8,1.7,2.5,3.5,1.1,5.7c-0.4,0.1-0.8,0.3-1.2,0.4
	c-2.1,0-4.2,1.5-6.2-0.2c-4.5-7.9-20.7-10.6-27.8-4.8c-1.8,1.4-0.8,4.5-3.5,5.1c-1,0.6-2.4-0.1-3.4,0.8c-0.7-0.3-1.3-0.6-2-0.9
	C23.5,79.7,23.5,78,24,76.1z"/>
<path class="st45" d="M77.8,156.2c-0.3-0.7-0.6-1.5-0.9-2.2c-1.1-8.9-0.7-17.9-0.4-26.8c0.6-14.7,0.1-29.5,0.4-44.2
	c-0.3-0.7-0.7-1.3-1-2c1.7-6.5,3.6-13,7.1-18.9c1.2,1,1,2.2,0.7,3.4c-0.6,2.1,0.9,2.3,2.4,2.6c-2.1,2.6-4.6,5.1-4.2,8.9
	c0,0.2,0.1,0.5,0.1,0.7c-0.4,3-0.8,6.1-1.2,9.2c-0.2,0.5-0.5,0.8-0.9,1.1c-1.4,1.4-0.9,3.1-0.9,4.7c0,18.9,0,37.8,0,56.6
	c0,3.5,0.2,6.9,3.1,9.5c0.5,0.2,0.8,0.6,0.9,1.1c0.3,0.7,0.7,1.3,1,2c-2.7,3.6-3,7.3-0.1,10.9c-1.6,0.7-3.2,1.4-4.8,2.1
	c-2.1,2.4-4.3,4.3-7.4,1.3c0.1-1.1,0.8-1.9,1.6-2.3c5.9-3,6.1-7.9,4.6-13.5C77.5,159,76.8,157.6,77.8,156.2z"/>
<path class="st47" d="M28,81c1-0.4,2-0.7,3-1.1c9.2-3.9,18.9-2.2,28.4-2.3c1.3,0,2.6,0.5,3.4,1.7c1.9,1.2,4,0.4,6,0.8
	c0.1,0.3,0.2,0.5,0.3,0.8c-1.1,0-2.2,0.1-3.3,0.1c-2.1,1.3-4.4,0.7-6.7,0.6c-6.2-0.3-12.5-0.4-18.7,0.1c-2.1,0.1-4.3,0.5-6.2-0.7
	C32.1,81.1,30.1,81,28,81z"/>
<path class="st52" d="M24,76.1c0.1,1.7,0.9,3,2.1,4.1c-1.9,5.4-1.7,11.2-1.8,16.6c-0.3,18.7-0.9,37.4,0.3,56.1
	c0.2,2.9-1.3,1.4-2.4,1c-0.9-0.8-0.6-1.8-0.6-2.8c0-17.2,0-34.4,0-51.7c0-0.8,0-1.7,0.4-2.4c-1.2-7.6,2.5-15.2,0-22.8
	c-0.3-0.8-0.6-1.5-0.9-2.3c0-0.7,0-1.4,0.1-2.1C22.9,71.6,22.8,74.1,24,76.1z"/>
<path class="st53" d="M85.9,112c-0.3,0.1-0.6,0.1-0.9,0.2c-2,0.7-3.1-0.6-3.1-2.2c-0.2-11-1.7-22.1,1-33c0.3-0.7,0.7-1.3,1-2
	c1.5,2.4,0.9,5.1,0.9,7.7c0,7.9,0,15.8,0,23.7c0,1.6-0.6,3.3,1,4.6C86,111.3,85.9,111.6,85.9,112z"/>
<path class="st54" d="M82.9,77c0,10.1,0,20.2,0.1,30.3c0,1.8-0.9,4.2,2,4.9c-3.6,1.9-5.1,0.8-5.1-3.3c0.1-7,0-13.9,0-20.9
	c0-0.3,0-0.6,0.1-0.9c1.8-3.1,0.5-6.8,1.9-10c0,0,0,0,0,0C82.2,77,82.5,77,82.9,77z"/>
<path class="st55" d="M82.9,147c-2.4-0.9-3-2.6-3-5c0.2-7.1,0.1-14.2,0-21.3c0-2.9,0.6-5.3,4-5.7c0.6,1.1,0.4,2.4,0.4,3.6
	c0,7.5,0,14.9,0,22.3C84.3,143,84.5,145.3,82.9,147z"/>
<path class="st56" d="M82.9,117c0.3-0.7,0.7-1.3,1-2c4.2,2.2,1,6,1.9,9c-0.9,5.9-0.2,11.8-0.4,17.7c-0.1,1.8,0.4,3.6-0.5,5.3
	c-0.4,0-0.7,0.1-1.1,0.1c-0.9-8.2-0.2-16.5-0.4-24.7C83.4,120.5,83.9,118.7,82.9,117z"/>
<path class="st57" d="M82.9,117c1.9,2.4,0.9,5.1,0.9,7.7c0.1,7.5,0,14.9,0,22.4c-0.3,0-0.7,0-1-0.1C82.9,137,82.9,127,82.9,117z"/>
<path class="st58" d="M83,159.9c-0.3-0.4-0.6-0.7-0.9-1.1c-0.1-2.3-0.1-4.6-0.1-6.9c0-0.6,0.1-1.5,0.9-1.5c0.6,0,1.3,0.3,1.7,0.7
	C86,152.7,84.9,158.3,83,159.9z"/>
<path class="st57" d="M84.9,147c0.4-7.7-1-15.4,0.9-23c0,5.7,0.1,11.3,0.1,17c0,2,0,4,0,6C85.6,147,85.3,147,84.9,147z"/>
<path class="st59" d="M60,194.9c-7.3,1.9-14.6,0.9-21.9,0c0.1-4.5-0.3-8.9,0.3-13.4c1.9-0.1,3.8-0.6,5.7-0.5
	c5.4,1.6,10.9-0.3,16.3,0.3c0.3,0.2,0.7,0.5,0.7,0.6C58.7,186.1,59.9,190.5,60,194.9z"/>
<path class="st31" d="M60.9,182c-5.7,0.4-11.3,2.3-17,0c0.5-1,1.4-1.5,2.5-1.9c3.4-0.7,6.7-0.7,10.1,0c0.7,0.1-0.2,0,0.5,0.1
	c0.1,0,0.1-0.2-0.3-0.5c0-0.6,0.2-1,0.7-1.3c4.8-0.9,9.4-3.6,14.5-2.3c2.7,1.9,4.7-0.7,7.1-1.1c3.2,2.3,4.4,7.3,2.8,11.9
	c-3,2.2-5.8,5-9.9,5c-2.6-0.3-2.1-2.4-2.3-4c-0.6-5.7-0.6-5.7-6-5.4C62.7,182.6,61.7,182.7,60.9,182z"/>
<path class="st60" d="M38.1,182c2.7,4.3,2,8.6,0,12.9c-4.8-0.8-9.6-1.7-14-4c-1.1-3.6,0.5-7.1,0.2-10.6c-0.1-1.2,1.1-2.3,2.3-2
	C30.5,179.4,34.7,179.5,38.1,182z"/>
<path class="st61" d="M60.9,182c9.3-2.5,9.3-2.5,10,7.3c0.1,1,0.1,2,1,2.6c-3.7,2.3-7.9,2.6-12,3C56.8,188.4,57,185.5,60.9,182z"/>
<path class="st47" d="M38.1,182c-3.4-0.9-6.9-1.7-10.3-2.7c-2.1-0.5-3.2,0.6-2.4,2.2c1.8,3.6-0.6,6.3-1.2,9.4c-3.6-0.8-5.1-3-5-6.6
	c0.1-2.8,0-5.5,0-8.3c0.7-0.1,1.5-0.1,1.8-1c6.6,2.4,13.3,4.6,20.2,5.9c1.6-0.9,3.3-1.5,4.9,0.1c-0.5,0.8-1.2,0.9-2,1
	C42,182,40,182,38.1,182z"/>
<path class="st49" d="M70.9,158.8c1-0.2,2-0.5,3.1-0.7c1.3,0.3,3-1.2,3.8,1c0.6,1.7,0,2.9-1,4.1c-13.1,17.2-36.7,17.3-51.2,4.3
	c-1.4-1.2-2.4-2.8-3.4-4.3c-1.6-2.6-1.3-4.7,1.7-6.1c2.1,0.4,3.7,2.1,6,1.9c2.3-0.4,4.5-0.6,6.2,1.6c0,2.5,1.3,3.8,3.6,4.8
	c6,2.5,11.9,2.5,18,0.6c2.9-0.9,4.3-2.9,5.2-5.5C65.5,158.8,68,157.7,70.9,158.8z"/>
<path class="st62" d="M24,157.2c-2.2,3.4-1.3,6.8,3.1,10.2c11.7,9.1,24.4,10.6,38,4.6c4.9-2.2,8-6.5,11.4-10.2
	c3.2-3.4-1.8-2.3-2.5-3.6c1.3-0.6,2-2.5,3.8-1.9c0.3,0.9,0.7,1.8,1,2.8c3,8.3,1.5,12-6.9,17.1c-4.9,1.4-9.8,2.7-14.9,3.1
	c-0.5,0.2-1,0.4-1.5,0.4c-3.8-0.4-7.6-0.5-11.4,0.2c-0.8,0.1-1.5-0.2-2.2-0.6c-6.6-1-13.4-1.6-18.9-6.1c-3-2.7-3.1-6.3-3-10
	c-0.3-2.1,0.7-3.8,1.3-5.6C21.9,155.7,23.1,156.3,24,157.2z"/>
<path class="st63" d="M36.1,160.9c-2-0.6-4-1.2-6.1-1.8c2.4-4.3,2.9-9.1,3-13.9c0.2-8.9-0.2-17.8-1.3-26.8c-0.5-3.8-1-8.5,1.4-12.4
	c0.3-0.1,0.5-0.1,0.8-0.2c2.9,0.2,6.1-1.3,8.4,1.7c-1.4,2.9-1.8,6-1.8,9.2c0.1,12.3,0.2,24.5-0.1,36.8c-0.1,2.8,1.4,5,1.7,7.6
	C40,162.5,38,162.5,36.1,160.9z"/>
<path class="st64" d="M67.2,104.1c0,0.3-0.2,0.6-0.4,0.8c-4,2.2-7.7,2.1-11.3-1c-3.8-3.4-9.9-3.6-13.6-0.2c-2.9,2.6-5.7,2.8-9.1,1.4
	c-0.6-0.4-1.2-0.7-1.9-1.1c-0.2-0.5-0.3-1-0.3-1.5c2.5-7.2,8.7-10.8,18.1-10.8c6,0,11.4,2,16,5.9C66.8,99.4,68,101.4,67.2,104.1z"/>
<path class="st65" d="M32.8,105.1c3-0.4,6,0.5,8.4-3.2c2.5-3.8,12.6-2.1,15.8,1.6c2.8,3.1,6.5,0.8,9.7,1.5c0,0.3,0.1,0.7,0.1,1
	c-0.2,0.2-0.5,0.4-0.7,0.7c-7.5,1.5-15.1,1.1-22.5,0.3c-3.5-0.4-7.2,0.3-10.7-1c0,0,0,0,0,0C33,105.7,33,105.4,32.8,105.1z"/>
<path class="st29" d="M34.2,81.1c10.6-1.4,21.1-1.4,31.7,0c-1.1,2.6-3.5,1.8-5.5,2c-1.9,0.2-3.9-0.4-5.6,0.8
	c-4.2,2.7-8.3,1.7-12.5-0.1C39.9,81.8,35.9,84.8,34.2,81.1z"/>
<path class="st47" d="M42.2,83.8c4.2,0,8.3,0,12.5,0.1c2.8,0.1,5.6,0.4,8.4,0.1c3.5-0.3,6.2,1.6,7.1,4.3c1.6,4.6,1.1,9.7,0.2,14.5
	c-0.2,1-1.3,0.7-2,0.2c-1.1-0.5-0.4-1.2-0.3-1.8c0.5-3.9,1.5-7.9-0.7-11.6c-1.2-1.7-2.5-3.1-4.7-3.1c-8.7-0.1-17.5-0.2-26.2,0.1
	c-1,0-1.9,0.5-2.7,1.1c-0.8,0.5-1.5,1.2-1.9,2.2c-1.1,3.9-0.2,7.9-0.6,11.8c0.2,0.5,0.1,1-0.2,1.4c0,0.3-0.1,0.7-0.1,1
	c-2.5-3.3-2.8-15-0.4-17.7c1.6-1.9,3.9-2.3,6.3-2.3C38.6,84,40.4,83.9,42.2,83.8z"/>
<path class="st63" d="M22,97.1c0.1,19,0.2,37.9,0.2,56.9c-2-1.3-0.8-3.4-1.2-5.1c0-14.9,0-29.9,0-44.8C21.5,101.8,20.2,99.2,22,97.1
	z"/>
<path class="st66" d="M20,162.9c1,3.3,2,6.7,3,10C18.8,170.6,18.7,167,20,162.9z"/>
<path class="st44" d="M46,181c-1.6,0-3.3-0.1-4.9-0.1c0.3-0.4,0.7-0.7,1-1.1c4.9-1.2,9.9-1.6,14.8,0c-1.2,2.4-3.3,0.7-4.9,1
	C50,181.2,48,181,46,181z"/>
<path class="st67" d="M56.9,179.9c-4.9,0-9.8,0-14.8,0c-0.1-0.3-0.1-0.5-0.2-0.7c0.7-0.1,1.5-0.2,2.2-0.3c3.9-0.5,7.8-0.5,11.8,0
	c0.4,0.1,0.8,0.3,1.2,0.4C57,179.4,57,179.6,56.9,179.9z"/>
<path class="st68" d="M16.1,16.1c0.9,0.7,1,1.7,1,2.7c0,9.8,0,19.6,0,29.4c0,1.3-0.6,2.5-0.9,3.8c-2.4-3.9-0.7-8.3-1.3-12.5
	c-1.1-7.4-1.3-15-0.7-22.5c0,0,0,0,0,0C14.7,16.6,14.9,15.4,16.1,16.1z"/>
<path class="st32" d="M16.1,16.1c-0.7,0.3-1.3,0.7-2,1c1.4-3.9,4.3-6.4,8-8C20.1,11.4,18.1,13.7,16.1,16.1z"/>
<path class="st63" d="M70.9,158.8c-2.7,0.7-5.3,1.4-8,2.1c-1.6,1.4-3.3,1.4-5,0.2c1.9-4.2,1.5-8.6,1.5-13c0-11.1-0.1-22.1,0.1-33.2
	c0-2.7-0.6-5.2-0.8-7.8c2.6-1.6,5.6,0.3,8.2-1.2c0,0,0,0,0,0c2.5,0.3,2.1,2.3,2,3.8c-1.1,10-0.9,20-1,30
	C67.9,146.3,68.6,152.7,70.9,158.8z"/>
<path class="st69" d="M30.9,88.9c0.1-0.8,0.4-1.4,1.1-1.7c6.8-2.1,13.7-0.8,20.6-1.1c2.1-0.1,4.3,0.2,6.4-0.1
	c5.2-0.7,8.7,1.1,10.2,6.2c-0.1,3.2,0.7,6.5-0.4,9.7c-0.2,0.4-0.3,0.7-0.5,1.1c-0.4,0.4-0.8,0.8-1.2,1.1
	c-1.4-5.5-7.7-10.2-15.2-11.1c-6.1-0.7-11.7,0.9-17,3.9c-2.5,1.4-1.7,4.6-3.9,6c-0.2-0.3-0.2-0.5-0.1-0.8
	C30.3,97.7,30.3,93.3,30.9,88.9z"/>
<path class="st70" d="M77,83c1.2,1,1,2.4,1,3.7c0,11.3,0.6,22.7-0.3,33.9c-0.9,11.1-0.3,22.2-0.8,33.4c-1.4-1.1-1-2.7-1-4.1
	c0-20.9,0-41.8,0-62.7C76,85.7,75.5,84.1,77,83z"/>
<path class="st71" d="M62.8,79.4c-10.6-1-21.2-0.5-31.8,0.5c0.5-6.4,5.5-8,10.4-8.6c7-0.9,14.3-1,20.3,4
	C63,76.4,63.1,77.9,62.8,79.4z"/>
<path class="st32" d="M81.9,77c-0.6,3.4,1.7,7.3-1.9,10C79.8,83.5,79.7,80,81.9,77z"/>
<path class="st25" d="M58,160.9c1.7,0,3.3,0,5,0c1.8,3-0.3,4.2-2.5,5.2c-8.2,3.7-16.1,3.3-24-1c-2.8-1.5-2.1-2.7-0.3-4.3
	c2,0,4,0,5.9,0C47.3,158.8,52.7,158.7,58,160.9z"/>
<path class="st72" d="M55.9,178.7c-3.9,0-7.8,0-11.8,0C48,177.4,52,177.4,55.9,178.7z"/>
<path class="st73" d="M58,160.9c-5.3,0.6-10.7,0.6-16,0c-3.4-0.8-3.2-3-3.1-6c0.3-14.1,0.2-28.2,0.1-42.3c0-2.6,0.6-4.4,3.1-5.4
	c2.6-1.2,5.3-0.7,8-0.4c0.3,1.3-0.6,1.9-1.5,2.2c-2.4,1-3,2.9-3,5.2c0,13.1,0,26.3,0,39.4c0,2.9,1,4.7,4.3,4.7
	c3.1,0,4.5-1.5,4.6-4.6c0.2-14-0.2-28,0.2-41.9c0.1-2.5-2.8-2.8-2.8-5c2.4-0.5,4.8-0.9,7.1,0.2c1,1.1,2.4,1.5,2.3,3.8
	c-0.4,15.6-0.9,31.2,0.2,46.8C61.7,161.1,58.5,159.2,58,160.9z"/>
<path class="st47" d="M50,107.2c-2.6,0-5.3,0-7.9,0c-3-0.7-6.2,1-9-1.2c11.3,0,22.6,0,33.9,0c-2.4,2.2-5.4,0.5-8,1.2
	c-2.3,0-4.6,0-6.9,0C51.3,107.7,50.7,107.7,50,107.2z"/>
<path class="st50" d="M68.7,91.9c-2.1-4.6-5.8-5.3-10.4-5c-6.8,0.4-13.6,0.4-20.4-0.1c-2-0.1-3.8,2.8-5.8,0.3c1.4-2,3.5-2.2,5.7-2.2
	c8.1,0,16.2,0.2,24.2-0.1c3.4-0.1,5.6,1.1,6.8,4.3C69.6,90.1,69.8,91,68.7,91.9z"/>
<path class="st65" d="M68.7,91.9c0.1-0.9,0.1-1.8,0.2-2.8c1.6,4.2,1.5,8.5,0,12.8C68.8,98.6,68.8,95.2,68.7,91.9z"/>
<path class="st65" d="M30.9,88.9c0,4.4,0,8.9,0,13.3C29.7,97.7,29.7,93.3,30.9,88.9z"/>
<path class="st74" d="M50,107.2c0.7,0,1.4,0,2,0c3.5,0.4,4.2,2.2,4.1,5.7c-0.3,13.9-0.3,27.9,0,41.8c0.1,5.4-2.8,5.2-6.6,5.3
	c-3.8,0.1-5.7-0.5-5.6-5.1c0.3-13.1,0.3-26.2,0-39.3C43.8,110.9,44.2,107.3,50,107.2z"/>
</svg>
